<svg id="Capa_1" data-name="Capa 1" xmlns="http://www.w3.org/2000/svg" viewBox="0 0 678.43 310.62"><defs><style>.cls-1,.cls-3{fill:#fff;}.cls-2,.cls-3{font-size:236.12px;font-family:AgencyFB-Reg, Agency FB;}</style></defs><title>hellion2</title><path class="cls-1" d="M646.4,399.3c-2.78-.33-8.5-7.76,9.3-26,2.8-3,6.25-19.05.43-27.67h0c-.18,5.2-14,24.45-26,29.78h0c3-3.17,23.31-25.09,11.54-49.91h0c-1.26,5.21-27.79,29.25-46.78,18.67h0c-2.79-2.66,0-8.74,4.78-11.26v0c-1.93-1.75-15.87,4.39-25.51,11.54h0c-3.1,2.08-18.31,15.61-19.41,12.46h0c6.11-3.05,13.14-12.88,8.78-22.89h0c-.78,3.13-7.93,12.41-18.49,15.81a24.09,24.09,0,0,1-3.05.7c-4.53.84-14.79,6-17.13,8.49-2.07,1.72-7,14.41-7,18.26h0a10.91,10.91,0,0,1,.39,1.1c-.28-.08-.4-.46-.39-1.1-1.13-2.8-3-4.06-5-3.94h0c2.38,2.66,3.44,5.53,2,13h0c-2.66.37-10.35,9.86-8.91,9.89h0c2.92-2.37,2.13-1.58,6.51-1.72-2.23.52-17,9.43-23,17.39,0,0,0,0,0,0,1.12-1.23,3.41-2.77,6.69-.43l.15,0c1.12-1,15.07-4.91,21.42,1.59,0,0,0,0,0,0-1.43-.92-8.83.31-10.63,2.12v.14c.34.44,1.65.92,4.07,1.58h0c.25,1-4.7,2.74-8.9,4-.51.16-3.06.84-3.06,1.5a17.81,17.81,0,0,0,12.85,16.38c1.85.56,11.39,3.11,10.26,11-.13.89-19.88-13.31-21.8-14.69l0,0c-.36-.06-3.92,3.07-4.45,3.52,0,0,0,0,0,0-1.82,1.69-12.63,17.74,1.14,25.82,0,0,0,0,0,0-2.26-3.91-.71-9.25-.55-10.2h0c.07,4.91,3.64,12.51,10.1,17.64h0c.06-.43,3.61-21.42,32.15-17h0c4.27-3.71,14-21.19-8.23-39.88-2.27-.26,6.47-.79,17.65,10.47,2.15,2.26,26.31,17.74,11.34-32.21a1,1,0,0,1-.15-.15l.12.1a.13.13,0,0,1,0,.05c2.36,2.37,36.15,34.93-4.68,69.58-3.59,3.45,6-6.61,8-16.67,0,0,0,0,0,0-3,1.6-8.24,8.87-18,14.7-3.19,1.59-31,22.12-7.34,62.12h0c0-5.23,12.75-30,42.3-45.45,4.89-2.62,29.84-16.25,34.66-36.11h0c.54,4.26,2.86,13.39-15.16,28.18h0c-2.8,2-15.81,11.92-21.27,16h0c-2.26,2.12-3.32,18.63-.55,22h0c.82-4.51,5.08-12.05,23-24.23h0c3.85-1.33,28.17-17.48,30.83-41.59,0,0,0,0,0,0,1.72,1.6,3.71,8.19,3.58,11.36a0,0,0,0,0,0,0c5.44-2.53,9.17-13.25,11.29-19.21h0c2.25-2.91,13-36.17,12-42.5h0C656.89,395.3,654,401,646.4,399.3Zm-96-45.91c-.4.35-1.15.44-2.13,3.09h0c-.75-.08-12,2.46-20.76,8C527.9,364,533.87,357.29,550.44,353.39Zm-8.55,11.12c-8.39,8.58-11.46,15.25-12.07,15.56h0a8.53,8.53,0,0,0-6.43,1.95s0,0,0,0c0-6,17-17,18.52-17.52C541.9,364.49,541.9,364.51,541.89,364.51Zm6,34.86c-15.15-.48-29.48,5.61-30.26,5.95,0,0,0,0,0,0,5.42-6.94,6.92-6,7.11-6.69h0c-.25-2.29-1.62-4.7-1.55-5.47,2,.67,2.21,2.72,2.35,1.87.63-4.12-.43-3.65.36-4.05C541.07,387.78,549.78,399.51,547.91,399.37Zm-12.56-20.05c-.94-2,2.8-3.31,3.26-3.5h0a68.56,68.56,0,0,1,10.27-1.46h0c3.48-2.08,14.27-4.87,15.29-5,0,0,0,0,0,0-11.36,5.18-13.53,7.55-14.39,8h0a27.19,27.19,0,0,0-14.42,1.93Zm63.21,60c.36-1.36,1.73-15.51-4-23.26,0,0,0,0,0,0,.15,1.79,6.77,32.44-29.41,58.79,0,0,0,0,0,0,1.33-2.24,15.9-28.24,13.67-43.4,0,0,0,0,0,0,1.22,1.35,3.9,5.61,2.92,20.11h0c1,.57,31.55-34.51-24.86-74,0,0,0,0,0,0,1,.22,15.92,3.45,40.75.45,4.45.12,4.91,10.13,3.92,16.82-.27,1.79-2.52,13.32-5.82,14.48,0,0,0,0,0,0,4.37.24,11.63,19.62,2.92,30Z" transform="translate(-93.13 -266.14)"/><path class="cls-1" d="M495.94,433.32a6.81,6.81,0,0,1-1.29,1c-6.35-10.33-7.07-15.34-7.07-16.66-.38-1.71.32-3.68,1.69-5.76,1.73,1.13.3,1.37.53,2.1.86,6.69,6.73,6.17,6.84,7,.63,5.1,1.24,5.62,2.17,8.71C499.14,430.8,497.54,431.94,495.94,433.32Z" transform="translate(-93.13 -266.14)"/><path class="cls-1" d="M597.27,383.09c-1.16.31-17.18,6.22-17.18,6.22l-6.58-5.61C579.9,383.09,598.44,382.79,597.27,383.09Z" transform="translate(-93.13 -266.14)"/><path class="cls-1" d="M591.22,404.31A21.4,21.4,0,0,0,583.08,393s3.69-2.18,10.61.27c-.71,0-4.3.46-5.4,1.89C588.76,395.26,591.44,398,591.22,404.31Z" transform="translate(-93.13 -266.14)"/><path class="cls-1" d="M583,332.21a1.24,1.24,0,0,1-.28.28c-6.35,4.69-8.87,1.84-14.24,13.18,0,0-3.72-11.54,10.86-16.88l-.24,0a20.07,20.07,0,0,0,6.26-3.71C585.46,324.43,585.84,328.2,583,332.21Z" transform="translate(-93.13 -266.14)"/><path class="cls-1" d="M616.61,340.69c-.45.89,7.41-17.37-17.77,1.4-.78-2,5.8-13.87,18.69-13.11C618.94,329.05,627.11,331.68,616.61,340.69Z" transform="translate(-93.13 -266.14)"/><path class="cls-1" d="M651.11,346.11s-1.52.35,2.24-10.79a4.35,4.35,0,0,1,1-1.62c1.45-1.45,2-2,11-3.41C666.89,329.62,654.92,337.39,651.11,346.11Z" transform="translate(-93.13 -266.14)"/><path class="cls-1" d="M660.46,381.67a32.18,32.18,0,0,1-5.43,6.64c4.51-7.28,1.2-11.86,1.2-11.86,2.86,1.91,3.74,3,4.07,3.69A1.74,1.74,0,0,1,660.46,381.67Z" transform="translate(-93.13 -266.14)"/><path class="cls-1" d="M528.26,472.74c-.6.93-6.35,18.32-.3,32.77,0,0,0,0,0,0-.49,0-13.22-10.35-14.93-22.16-.06-3,2.06-6.17,6.85-11.73,1.19-1.14,2-3.52,3.15-7C523,464.66,528.85,471.81,528.26,472.74Z" transform="translate(-93.13 -266.14)"/><rect class="cls-1" x="648.76" y="15.31" width="15.38" height="31.68"/><rect class="cls-1" x="14.33" width="635.53" height="15.33"/><rect class="cls-1" x="648.76" width="15.38" height="15.33"/><rect class="cls-1" x="28.57" y="295.29" width="635.53" height="15.33"/><rect class="cls-1" x="14.3" y="263.6" width="15.96" height="31.68"/><rect class="cls-1" x="14.3" y="295.29" width="15.38" height="15.33"/><text class="cls-2" transform="translate(0 246.06) scale(0.99 1)"><tspan xml:space="preserve">HELLI    N</tspan></text><text class="cls-3" transform="translate(0 246.06) scale(0.99 1)"><tspan xml:space="preserve">HELLI    N</tspan></text></svg>